<?xml version="1.0" encoding="UTF-8"?>
<svg xmlns="http://www.w3.org/2000/svg" viewBox="0 0 75 75" role="img" aria-labelledby="title desc">
  <title id="title">Share your plans</title>
  <desc id="desc">A travel plan document being shared on a soft blue organic background.</desc>
  <path opacity=".82" fill="#BFE3FF" d="M44.3 8.6s7.9-2 13.1 2.7S70.5 27 70.9 41.4 72 68.1 46.3 67 12.1 55 7.3 46.4 3.5 24.1 13.2 19.7 40.7 9 44.3 8.6Z"/>
  <g fill="none" stroke="#111" stroke-width="2.25" stroke-linecap="round" stroke-linejoin="round">
    <path fill="#fff" d="M18 17h25l8 8v24H18Z"/>
    <path d="M43 17v8h8M25 29h18M25 36h14M25 43h10"/>
    <circle cx="53.5" cy="40" r="4" fill="#fff"/>
    <circle cx="44.5" cy="55" r="4" fill="#fff"/>
    <circle cx="62" cy="57" r="4" fill="#fff"/>
    <path d="m50.8 43.3-4.2 8.2M56.5 43.5l4 9.7"/>
  </g>
</svg>
