<?xml version="1.0" encoding="UTF-8"?>
<svg xmlns="http://www.w3.org/2000/svg" viewBox="0 0 75 75" role="img" aria-labelledby="title desc">
  <title id="title">Get a tailored itinerary</title>
  <desc id="desc">A personalised folded route map with location markers on a soft yellow organic background.</desc>
  <path opacity=".82" fill="#FFE39A" d="M44.3 8.6s7.9-2 13.1 2.7S70.5 27 70.9 41.4 72 68.1 46.3 67 12.1 55 7.3 46.4 3.5 24.1 13.2 19.7 40.7 9 44.3 8.6Z"/>
  <g fill="none" stroke="#111" stroke-width="2.25" stroke-linecap="round" stroke-linejoin="round">
    <path fill="#fff" d="m13 24 16-7 17 7 16-7v36l-16 7-17-7-16 7Z"/>
    <path d="M29 17v36M46 24v36"/>
    <path stroke-dasharray="3 4" d="M19 46c7-12 16 5 23-7 4-7 9-5 14-10"/>
    <path fill="#fff" d="M20 44.5c-4.2-5.3-6.5-8.8-6.5-12.3a6.5 6.5 0 0 1 13 0c0 3.5-2.3 7-6.5 12.3Z"/>
    <circle cx="20" cy="32" r="2" fill="#fff"/>
    <path fill="#fff" d="M55 36.5c-3.6-4.6-5.5-7.5-5.5-10.5a5.5 5.5 0 0 1 11 0c0 3-1.9 5.9-5.5 10.5Z"/>
    <circle cx="55" cy="26" r="1.6" fill="#fff"/>
  </g>
</svg>
