<?xml version="1.0" encoding="UTF-8"?>
<svg xmlns="http://www.w3.org/2000/svg" viewBox="0 0 75 75" role="img" aria-labelledby="title desc">
  <title id="title">Private and personalized tours</title>
  <desc id="desc">A guest profile with a protected personal check mark on a soft blue organic background.</desc>
  <path opacity=".82" fill="#BFE3FF" d="M44.3 8.6s7.9-2 13.1 2.7S70.5 27 70.9 41.4 72 68.1 46.3 67 12.1 55 7.3 46.4 3.5 24.1 13.2 19.7 40.7 9 44.3 8.6Z"/>
  <g fill="none" stroke="#111" stroke-width="2.25" stroke-linecap="round" stroke-linejoin="round">
    <circle cx="27" cy="27" r="9" fill="#fff"/>
    <path d="M10.5 58.5c1.5-11 7.5-17 16.5-17s15 6 16.5 17Z" fill="#fff"/>
    <path d="M50 31.5c4 3 8 3 11 0v10c0 8-5.5 13-11 15.5-5.5-2.5-11-7.5-11-15.5v-10c3 3 7 3 11 0Z" fill="#fff"/>
    <path d="m44.5 42.5 3.5 3.5 7-8"/>
    <path d="m12.5 20 1.4 3.1 3.1 1.4-3.1 1.4-1.4 3.1-1.4-3.1L8 24.5l3.1-1.4Z" fill="#fff"/>
  </g>
</svg>
