<?xml version="1.0" encoding="UTF-8"?>
<svg xmlns="http://www.w3.org/2000/svg" viewBox="0 0 75 75" role="img" aria-labelledby="title desc">
  <title id="title">Private and flexible</title>
  <desc id="desc">A protected private guest with flexible direction arrows on a soft blue organic background.</desc>
  <path opacity=".82" fill="#BFE3FF" d="M44.3 8.6s7.9-2 13.1 2.7S70.5 27 70.9 41.4 72 68.1 46.3 67 12.1 55 7.3 46.4 3.5 24.1 13.2 19.7 40.7 9 44.3 8.6Z"/>
  <g fill="none" stroke="#111" stroke-width="2.25" stroke-linecap="round" stroke-linejoin="round">
    <circle cx="25" cy="26" r="8" fill="#fff"/>
    <path d="M10 55c1-10 6.5-16 15-16s14 6 15 16Z" fill="#fff"/>
    <path d="M49 27c4 3 8 3 12 0v11c0 8-6 14-12 16.5C43 52 37 46 37 38V27c4 3 8 3 12 0Z" fill="#fff"/>
    <path d="m43.5 39 3.5 3.5 7.5-8"/>
    <path d="M12 63h42M18 58l-6 5 6 5M48 58l6 5-6 5"/>
  </g>
</svg>
